<?xml version="1.0" encoding="UTF-8" standalone="no"?>
<svg
   viewBox="0 0 32 32"
   version="1.1"
   id="svg4"
   sodipodi:docname="busd.svg"
   inkscape:version="1.2 (dc2aedaf03, 2022-05-15)"
   xmlns:inkscape="http://www.inkscape.org/namespaces/inkscape"
   xmlns:sodipodi="http://sodipodi.sourceforge.net/DTD/sodipodi-0.dtd"
   xmlns="http://www.w3.org/2000/svg"
   xmlns:svg="http://www.w3.org/2000/svg">
  <defs
     id="defs8" />
  <sodipodi:namedview
     id="namedview6"
     pagecolor="#ffffff"
     bordercolor="#666666"
     borderopacity="1.0"
     inkscape:showpageshadow="2"
     inkscape:pageopacity="0.0"
     inkscape:pagecheckerboard="0"
     inkscape:deskcolor="#d1d1d1"
     showgrid="false"
     inkscape:zoom="23.201941"
     inkscape:cx="17.283037"
     inkscape:cy="15.257344"
     inkscape:window-width="2560"
     inkscape:window-height="1017"
     inkscape:window-x="1358"
     inkscape:window-y="-8"
     inkscape:window-maximized="1"
     inkscape:current-layer="svg4" />
  <path
     id="path2"
     style="fill:#ffffff"
     d="M 16 0 C 7.163044 0 0 7.163044 0 16 C 0 24.836955 7.163044 32 16 32 C 24.836955 32 32 24.836955 32 16 C 32 7.163044 24.836955 0 16 0 z M 16 5.9707031 L 18.476562 8.5078125 L 12.238281 14.746094 L 9.7617188 12.269531 L 16 5.9707031 z M 19.761719 9.7324219 L 22.238281 12.269531 L 12.238281 22.267578 L 9.7617188 19.791016 L 19.761719 9.7324219 z M 8.4785156 13.492188 L 10.955078 16.029297 L 8.4785156 18.507812 L 6 16.029297 L 8.4785156 13.492188 z M 23.521484 13.492188 L 26 16.029297 L 16 26.029297 L 13.523438 23.550781 L 23.521484 13.492188 z " />
  <g
     id="Layer_2"
     data-name="Layer 2"
     transform="matrix(0.05969649,0,0,0.05969649,5.9590504,5.9286052)"
     style="stroke:none">
    <g
       id="Layer_1-2"
       data-name="Layer 1"
       style="stroke:none" />
  </g>
</svg>
